<?xml version="1.0" encoding="UTF-8" standalone="no"?>
<!-- Created with Inkscape (http://www.inkscape.org/) -->

<svg
   version="1.1"
   id="svg1"
   width="2238"
   height="2238"
   viewBox="0 0 2238 2238"
   sodipodi:docname="microscope.svg"
   inkscape:version="1.4 (e7c3feb1, 2024-10-09)"
   inkscape:export-filename="icon16.png"
   inkscape:export-xdpi="1"
   inkscape:export-ydpi="1"
   xmlns:inkscape="http://www.inkscape.org/namespaces/inkscape"
   xmlns:sodipodi="http://sodipodi.sourceforge.net/DTD/sodipodi-0.dtd"
   xmlns="http://www.w3.org/2000/svg"
   xmlns:svg="http://www.w3.org/2000/svg">
  <defs
     id="defs1" />
  <sodipodi:namedview
     id="namedview1"
     pagecolor="#ffffff"
     bordercolor="#000000"
     borderopacity="0.25"
     inkscape:showpageshadow="2"
     inkscape:pageopacity="0.0"
     inkscape:pagecheckerboard="true"
     inkscape:deskcolor="#d1d1d1"
     showgrid="false"
     inkscape:zoom="0.33847027"
     inkscape:cx="856.79608"
     inkscape:cy="1115.3121"
     inkscape:window-width="1728"
     inkscape:window-height="976"
     inkscape:window-x="0"
     inkscape:window-y="38"
     inkscape:window-maximized="0"
     inkscape:current-layer="group-R5"
     showborder="true"
     showguides="true">
    <inkscape:page
       x="0"
       y="0"
       inkscape:label="1"
       id="page1"
       width="2238"
       height="2238"
       margin="0"
       bleed="0" />
    <inkscape:grid
       id="grid1"
       units="px"
       originx="2.9544594"
       originy="-2.954474"
       spacingx="1"
       spacingy="1"
       empcolor="#0099e5"
       empopacity="0.30196078"
       color="#0099e5"
       opacity="0.14901961"
       empspacing="5"
       enabled="true"
       visible="false" />
  </sodipodi:namedview>
  <g
     id="group-R5"
     transform="translate(-556.73352,-298.90118)"
     inkscape:label="microscope"
     style="display:inline">
    <path
       id="path2"
       d="m 1381.0962,1457.3811 -205.2187,-132.9333 59.3694,-91.6533 205.2346,132.9466 -59.3853,91.64"
       style="fill:#1e5389;fill-opacity:1;fill-rule:nonzero;stroke:none;stroke-width:0.133333" />
    <path
       id="path3"
       d="M 1918.0562,628.51453 1712.8295,495.56787 1839.7628,299.63454 2044.9895,432.5812 1918.0562,628.51453"
       style="fill:#1e5389;fill-opacity:1;fill-rule:nonzero;stroke:none;stroke-width:0.133333" />
    <path
       id="path4"
       d="m 1491.2882,1398.6345 -306.8533,-198.7467 477.5813,-737.23993 306.84,198.78666 -477.568,737.19997"
       style="fill:#2c7eb2;fill-opacity:1;fill-rule:nonzero;stroke:none;stroke-width:0.133333" />
    <path
       id="path5"
       d="m 1921.3762,630.67453 c 0,0 -283.0933,467.18657 -349.6453,530.62657 -120.7134,115.0534 -227.1347,39.5467 -339.0574,-35.8666 l -48.2386,74.4533 306.8533,198.7467 477.568,-737.19997 -47.48,-30.76"
       style="fill:#266ca8;fill-opacity:1;fill-rule:nonzero;stroke:none;stroke-width:0.133333" />
    <path
       id="path6"
       d="m 2492.8828,2472.1811 v -140.9733 c 0,-26.88 -21.7866,-48.6667 -48.6666,-48.6667 H 907.25753 c -26.89067,0 -48.688,21.7867 -48.688,48.6667 v 140.9733 H 2492.8828"
       style="fill:#2c7eb2;fill-opacity:1;fill-rule:nonzero;stroke:none;stroke-width:0.133333" />
    <path
       id="path7"
       d="M 2530.2562,2536.1678 H 821.21086 v -63.9867 H 2530.2562 v 63.9867"
       style="fill:#1e5389;fill-opacity:1;fill-rule:nonzero;stroke:none;stroke-width:0.133333" />
    <path
       id="path8"
       d="m 1807.9095,2296.5278 c 0,0 358.44,-154.3333 305.2533,-631.5067 -53.32,-478.5733 -375.9466,-593.5733 -375.9466,-593.5733 l 104.0133,-158.27995 c 0,0 494.56,253.27995 598.5333,724.55995 93.6267,424.3333 -115.96,656.4933 -115.96,656.4933 l -515.8933,2.3067"
       style="fill:#2c7eb2;fill-opacity:1;fill-rule:nonzero;stroke:none;stroke-width:0.133333" />
    <path
       id="path9"
       d="m 2018.1628,997.83452 c 0,124.78658 -101.1466,225.94658 -225.9466,225.94658 -124.7867,0 -225.9387,-101.16 -225.9387,-225.94658 0,-124.78666 101.152,-225.96 225.9387,-225.96 124.8,0 225.9466,101.17334 225.9466,225.96"
       style="fill:#a8e2ea;fill-opacity:1;fill-rule:nonzero;stroke:none;stroke-width:0.133333" />
    <path
       id="path10"
       d="m 1896.9895,997.83452 c 0,57.85328 -46.8933,104.75998 -104.7733,104.75998 -57.8533,0 -104.7467,-46.9067 -104.7467,-104.75998 0,-57.85333 46.8934,-104.77333 104.7467,-104.77333 57.88,0 104.7733,46.92 104.7733,104.77333"
       style="fill:#2c7eb2;fill-opacity:1;fill-rule:nonzero;stroke:none;stroke-width:0.133333" />
    <path
       id="path11"
       d="m 2371.7895,1699.3545 c -38,-270.9467 -179.36,-452 -271.2667,-520.8934 -28.4266,-21.3333 -82.36,45.32 -68.88,67.5334 67.1867,110.8133 129.3867,232.6266 150.84,445.6933 41.4534,411.7867 -156.24,456.7867 -156.24,518.3066 0,29.4934 232.0667,43.5334 262.8934,4.24 50.7866,-64.7333 123.8933,-220.6799 82.6533,-514.8799"
       style="fill:#4694c9;fill-opacity:1;fill-rule:nonzero;stroke:none;stroke-width:0.133333" />
    <path
       id="path12"
       d="m 1477.3149,2282.5411 h -370.0894 v -101.6267 h 370.0894 v 101.6267"
       style="fill:#1e5389;fill-opacity:1;fill-rule:nonzero;stroke:none;stroke-width:0.133333" />
    <path
       id="path13"
       d="m 1620.2029,2187.1811 v -135.9066 c 0,-16.52 -13.4134,-29.9334 -29.9454,-29.9334 H 994.26286 c -16.53733,0 -29.92267,13.4134 -29.92267,29.9334 v 135.9066 h 655.86271"
       style="fill:#1e5389;fill-opacity:1;fill-rule:nonzero;stroke:none;stroke-width:0.133333" />
  </g>
</svg>
